<?xml version="1.0" encoding="UTF-8"?>
<!DOCTYPE svg PUBLIC "-//W3C//DTD SVG 1.1//EN" "http://www.w3.org/Graphics/SVG/1.1/DTD/svg11.dtd">
<svg xmlns="http://www.w3.org/2000/svg" version="1.1" width="500px" height="500px" style="shape-rendering:geometricPrecision; text-rendering:geometricPrecision; image-rendering:optimizeQuality; fill-rule:evenodd; clip-rule:evenodd" xmlns:xlink="http://www.w3.org/1999/xlink">
<g><path style="opacity:0.058" fill="#dfdfdf" d="M 109.5,115.5 C 86.1571,115.167 62.8238,115.5 39.5,116.5C 41.6309,117.169 43.6309,117.835 45.5,118.5C 43.1667,118.5 40.8333,118.5 38.5,118.5C 38.5,117.167 38.5,115.833 38.5,114.5C 62.3392,114.169 86.0059,114.502 109.5,115.5 Z"/></g>
<g><path style="opacity:0.06" fill="#dbdbdb" d="M 287.5,115.5 C 271.153,115.167 254.82,115.501 238.5,116.5C 244.082,116.99 249.416,117.99 254.5,119.5C 248.87,118.708 243.203,118.375 237.5,118.5C 237.5,117.167 237.5,115.833 237.5,114.5C 254.342,114.17 271.008,114.503 287.5,115.5 Z"/></g>
<g><path style="opacity:0.999" fill="#3f3d3b" d="M 109.5,115.5 C 110.506,116.396 110.506,117.062 109.5,117.5C 105.486,117.334 101.486,117.501 97.5,118C 96.2625,118.232 95.2625,118.732 94.5,119.5C 90.9548,121.394 88.9548,124.394 88.5,128.5C 89.5514,131.757 90.2181,135.09 90.5,138.5C 90.2594,140.898 90.9261,142.898 92.5,144.5C 92.5,144.833 92.5,145.167 92.5,145.5C 92.4095,148.152 93.0762,150.485 94.5,152.5C 94.7234,156.162 95.7234,159.495 97.5,162.5C 97.7234,166.162 98.7234,169.495 100.5,172.5C 100.723,176.162 101.723,179.495 103.5,182.5C 103.723,186.162 104.723,189.495 106.5,192.5C 106.723,196.162 107.723,199.495 109.5,202.5C 109.723,206.162 110.723,209.495 112.5,212.5C 112.723,216.162 113.723,219.495 115.5,222.5C 115.41,225.152 116.076,227.485 117.5,229.5C 117.41,232.152 118.076,234.485 119.5,236.5C 122.119,244.913 124.119,253.579 125.5,262.5C 125.5,263.833 125.5,265.167 125.5,266.5C 116.833,266.5 108.167,266.5 99.5,266.5C 85.403,222.804 71.903,178.804 59,134.5C 57.7558,129.003 55.2558,124.336 51.5,120.5C 50.0101,118.72 48.0101,118.054 45.5,118.5C 43.6309,117.835 41.6309,117.169 39.5,116.5C 62.8238,115.5 86.1571,115.167 109.5,115.5 Z"/></g>
<g><path style="opacity:0.994" fill="#5f5d5b" d="M 287.5,115.5 C 283.644,116.973 279.644,118.306 275.5,119.5C 270.069,122.989 266.569,127.989 265,134.5C 260.802,151.959 256.302,169.292 251.5,186.5C 250.566,187.568 250.232,188.901 250.5,190.5C 249.957,190.56 249.624,190.893 249.5,191.5C 252.977,192.167 256.311,192.834 259.5,193.5C 256.167,193.5 252.833,193.5 249.5,193.5C 243.652,218.226 237.485,242.892 231,267.5C 229.174,268.841 228.007,268.341 227.5,266C 233.452,241.691 239.785,217.524 246.5,193.5C 245.602,192.842 244.602,192.176 243.5,191.5C 244.949,190.828 246.282,190.161 247.5,189.5C 252.637,169.951 257.304,150.284 261.5,130.5C 261.906,125.012 259.573,121.345 254.5,119.5C 249.416,117.99 244.082,116.99 238.5,116.5C 254.82,115.501 271.153,115.167 287.5,115.5 Z"/></g>
<g><path style="opacity:0.338" fill="#b2b1b0" d="M 177.5,117.5 C 173.069,117.231 168.735,117.564 164.5,118.5C 166.223,117.2 168.39,116.533 171,116.5C 173.361,116.504 175.527,116.837 177.5,117.5 Z"/></g>
<g><path style="opacity:0.356" fill="#b0afaf" d="M 109.5,117.5 C 104.668,118.4 99.6678,119.066 94.5,119.5C 95.2625,118.732 96.2625,118.232 97.5,118C 101.486,117.501 105.486,117.334 109.5,117.5 Z"/></g>
<g><path style="opacity:0.999" fill="#464442" d="M 177.5,117.5 C 195.1,166.469 211.434,215.969 226.5,266C 225.534,267.734 224.034,268.568 222,268.5C 215.496,267.188 208.996,267.188 202.5,268.5C 200.971,268.471 199.804,267.804 199,266.5C 186.46,227.713 173.627,189.047 160.5,150.5C 150.83,188.513 141.163,226.513 131.5,264.5C 129.694,267.338 128.694,267.005 128.5,263.5C 140.031,215.041 152.031,166.708 164.5,118.5C 168.735,117.564 173.069,117.231 177.5,117.5 Z"/></g>
<g><path style="opacity:0.356" fill="#b5b4b3" d="M 287.5,115.5 C 288.404,116.209 288.737,117.209 288.5,118.5C 284.119,118.372 279.785,118.705 275.5,119.5C 279.644,118.306 283.644,116.973 287.5,115.5 Z"/></g>
<g><path style="opacity:0.749" fill="#aaa9a8" d="M 45.5,118.5 C 48.0101,118.054 50.0101,118.72 51.5,120.5C 49.3024,120.125 47.3024,119.458 45.5,118.5 Z"/></g>
<g><path style="opacity:0.737" fill="#ababaa" d="M 90.5,138.5 C 91.7384,140.214 92.405,142.214 92.5,144.5C 90.9261,142.898 90.2594,140.898 90.5,138.5 Z"/></g>
<g><path style="opacity:0.831" fill="#949392" d="M 92.5,145.5 C 93.9238,147.515 94.5905,149.848 94.5,152.5C 93.0762,150.485 92.4095,148.152 92.5,145.5 Z"/></g>
<g><path style="opacity:0.004" fill="#f3f4f3" d="M 160.5,154.5 C 161.833,155.167 161.833,155.167 160.5,154.5 Z"/></g>
<g><path style="opacity:0.914" fill="#8f8e8c" d="M 94.5,152.5 C 96.2766,155.505 97.2766,158.838 97.5,162.5C 95.7234,159.495 94.7234,156.162 94.5,152.5 Z"/></g>
<g><path style="opacity:0.918" fill="#8f8e8d" d="M 97.5,162.5 C 99.2766,165.505 100.277,168.838 100.5,172.5C 98.7234,169.495 97.7234,166.162 97.5,162.5 Z"/></g>
<g><path style="opacity:0.906" fill="#8f8e8d" d="M 100.5,172.5 C 102.277,175.505 103.277,178.838 103.5,182.5C 101.723,179.495 100.723,176.162 100.5,172.5 Z"/></g>
<g><path style="opacity:0.91" fill="#8f8e8d" d="M 103.5,182.5 C 105.277,185.505 106.277,188.838 106.5,192.5C 104.723,189.495 103.723,186.162 103.5,182.5 Z"/></g>
<g><path style="opacity:0.056" fill="#e4e4e4" d="M 251.5,186.5 C 251.5,187.5 251.5,188.5 251.5,189.5C 267.009,189.17 282.342,189.504 297.5,190.5C 281.833,190.5 266.167,190.5 250.5,190.5C 250.232,188.901 250.566,187.568 251.5,186.5 Z"/></g>
<g><path style="opacity:0.999" fill="#42403e" d="M 250.5,190.5 C 266.167,190.5 281.833,190.5 297.5,190.5C 307.538,213.595 317.204,236.929 326.5,260.5C 326.357,262.262 326.691,263.929 327.5,265.5C 318.525,266.498 309.525,266.832 300.5,266.5C 291.988,247.463 283.988,228.13 276.5,208.5C 276.719,207.325 276.386,206.325 275.5,205.5C 274.5,226.156 274.167,246.823 274.5,267.5C 274.19,268.738 273.69,268.738 273,267.5C 272.667,246.833 272.333,226.167 272,205.5C 270.638,198.639 266.472,194.639 259.5,193.5C 256.311,192.834 252.977,192.167 249.5,191.5C 249.624,190.893 249.957,190.56 250.5,190.5 Z"/></g>
<g><path style="opacity:0.997" fill="#484644" d="M 454.5,190.5 C 451.109,192.125 447.442,193.125 443.5,193.5C 438.006,194.676 434.506,198.009 433,203.5C 432.667,224.833 432.333,246.167 432,267.5C 422.793,267.671 413.626,267.671 404.5,267.5C 404.667,245.831 404.5,224.164 404,202.5C 403.392,204.154 402.892,205.821 402.5,207.5C 396.031,227.574 389.364,247.574 382.5,267.5C 381.167,267.5 379.833,267.5 378.5,267.5C 386.897,241.642 395.897,215.976 405.5,190.5C 421.995,189.173 438.328,189.173 454.5,190.5 Z"/></g>
<g><path style="opacity:0.365" fill="#c6c5c5" d="M 247.5,189.5 C 246.282,190.161 244.949,190.828 243.5,191.5C 244.602,192.176 245.602,192.842 246.5,193.5C 245.167,193.5 243.833,193.5 242.5,193.5C 242.5,192.167 242.5,190.833 242.5,189.5C 244.167,189.5 245.833,189.5 247.5,189.5 Z"/></g>
<g><path style="opacity:0.341" fill="#aeadac" d="M 454.5,190.5 C 455.404,191.209 455.737,192.209 455.5,193.5C 451.5,193.5 447.5,193.5 443.5,193.5C 447.442,193.125 451.109,192.125 454.5,190.5 Z"/></g>
<g><path style="opacity:0.914" fill="#8f8e8d" d="M 106.5,192.5 C 108.277,195.505 109.277,198.838 109.5,202.5C 107.723,199.495 106.723,196.162 106.5,192.5 Z"/></g>
<g><path style="opacity:0.087" fill="#dfdede" d="M 404.5,267.5 C 403.833,247.5 403.167,227.5 402.5,207.5C 402.892,205.821 403.392,204.154 404,202.5C 404.5,224.164 404.667,245.831 404.5,267.5 Z"/></g>
<g><path style="opacity:0.914" fill="#908e8d" d="M 109.5,202.5 C 111.277,205.505 112.277,208.838 112.5,212.5C 110.723,209.495 109.723,206.162 109.5,202.5 Z"/></g>
<g><path style="opacity:0.745" fill="#6e6d6b" d="M 276.5,208.5 C 275.833,228.167 275.167,247.833 274.5,267.5C 274.167,246.823 274.5,226.156 275.5,205.5C 276.386,206.325 276.719,207.325 276.5,208.5 Z"/></g>
<g><path style="opacity:0.906" fill="#91908f" d="M 112.5,212.5 C 114.277,215.505 115.277,218.838 115.5,222.5C 113.723,219.495 112.723,216.162 112.5,212.5 Z"/></g>
<g><path style="opacity:0.835" fill="#969594" d="M 115.5,222.5 C 116.924,224.515 117.59,226.848 117.5,229.5C 116.076,227.485 115.41,225.152 115.5,222.5 Z"/></g>
<g><path style="opacity:0.557" fill="#a5a4a3" d="M 117.5,229.5 C 118.924,231.515 119.59,233.848 119.5,236.5C 118.076,234.485 117.41,232.152 117.5,229.5 Z"/></g>
<g><path style="opacity:0.844" fill="#8a8988" d="M 125.5,262.5 C 126.29,263.609 126.79,264.942 127,266.5C 127.232,265.263 127.732,264.263 128.5,263.5C 128.694,267.005 129.694,267.338 131.5,264.5C 131.778,266.346 131.111,267.68 129.5,268.5C 120.631,268.355 111.464,268.355 102,268.5C 100.624,268.316 99.7911,267.649 99.5,266.5C 108.167,266.5 116.833,266.5 125.5,266.5C 125.5,265.167 125.5,263.833 125.5,262.5 Z"/></g>
<g><path style="opacity:0.848" fill="#7f7e7d" d="M 326.5,260.5 C 327.481,262.396 328.481,264.396 329.5,266.5C 329.167,267.5 328.5,268.167 327.5,268.5C 319.717,267.277 311.717,267.277 303.5,268.5C 301.97,268.36 300.97,267.693 300.5,266.5C 309.525,266.832 318.525,266.498 327.5,265.5C 326.691,263.929 326.357,262.262 326.5,260.5 Z"/></g>
<g><path style="opacity:0.012" fill="#f3f4f3" d="M 190.5,281.5 C 189.167,281.5 188.5,282.167 188.5,283.5C 187.596,282.791 187.263,281.791 187.5,280.5C 188.791,280.263 189.791,280.596 190.5,281.5 Z"/></g>
<g><path style="opacity:0.183" fill="#c9c9c9" d="M 259.5,280.5 C 257.544,286.412 256.877,292.745 257.5,299.5C 256.509,293.021 256.176,286.354 256.5,279.5C 257.791,279.263 258.791,279.596 259.5,280.5 Z"/></g>
<g><path style="opacity:1" fill="#3c3c3c" d="M 259.5,280.5 C 260.044,287.806 261.044,295.139 262.5,302.5C 259.715,303.084 258.048,302.084 257.5,299.5C 256.877,292.745 257.544,286.412 259.5,280.5 Z"/></g>
<g><path style="opacity:1" fill="#2c2c2c" d="M 190.5,281.5 C 193.85,281.335 197.183,281.502 200.5,282C 201.056,282.383 201.389,282.883 201.5,283.5C 200.391,283.557 199.391,283.89 198.5,284.5C 196.139,284.326 193.806,283.993 191.5,283.5C 191.5,288.833 191.5,294.167 191.5,299.5C 192.5,299.5 193.5,299.5 194.5,299.5C 196.735,299.205 198.735,299.539 200.5,300.5C 196.769,301.196 192.935,301.862 189,302.5C 188.5,302 188,301.5 187.5,301C 188.475,295.259 188.808,289.425 188.5,283.5C 188.5,282.167 189.167,281.5 190.5,281.5 Z"/></g>
<g><path style="opacity:1" fill="#4c4c4c" d="M 201.5,283.5 C 205.656,287.425 206.489,292.092 204,297.5C 202.961,298.71 201.794,299.71 200.5,300.5C 198.735,299.539 196.735,299.205 194.5,299.5C 201.015,298.152 203.182,294.152 201,287.5C 200.302,286.309 199.469,285.309 198.5,284.5C 199.391,283.89 200.391,283.557 201.5,283.5 Z"/></g>
<g><path style="opacity:0.004" fill="#eeeeee" d="M 226.5,286.5 C 225.209,286.263 224.209,286.596 223.5,287.5C 222.833,287.833 222.167,288.167 221.5,288.5C 221.414,287.504 221.748,286.671 222.5,286C 224.066,285.235 225.399,285.402 226.5,286.5 Z"/></g>
<g><path style="opacity:0.086" fill="#dddddd" d="M 235.5,286.5 C 236.209,285.596 237.209,285.263 238.5,285.5C 238.5,286.5 238.5,287.5 238.5,288.5C 238.167,288.5 237.833,288.5 237.5,288.5C 237.5,287.167 236.833,286.5 235.5,286.5 Z"/></g>
<g><path style="opacity:0.66" fill="#656565" d="M 286.5,287.5 C 286.842,288.338 287.508,288.672 288.5,288.5C 288.5,288.833 288.5,289.167 288.5,289.5C 287.222,289.782 286.222,290.449 285.5,291.5C 285.108,289.821 284.608,288.154 284,286.5C 283.333,293.5 283.333,300.5 284,307.5C 284.182,304.774 284.682,302.107 285.5,299.5C 286.107,299.624 286.44,299.957 286.5,300.5C 285.527,302.948 285.194,305.615 285.5,308.5C 284.5,308.5 283.5,308.5 282.5,308.5C 282.5,300.833 282.5,293.167 282.5,285.5C 284.199,285.527 285.533,286.194 286.5,287.5 Z"/></g>
<g><path style="opacity:1" fill="#242424" d="M 285.5,291.5 C 284.629,296.451 286.629,299.118 291.5,299.5C 292.833,299.5 293.5,300.167 293.5,301.5C 290.875,302.924 288.542,302.591 286.5,300.5C 286.44,299.957 286.107,299.624 285.5,299.5C 284.682,302.107 284.182,304.774 284,307.5C 283.333,300.5 283.333,293.5 284,286.5C 284.608,288.154 285.108,289.821 285.5,291.5 Z"/></g>
<g><path style="opacity:0.684" fill="#767676" d="M 321.5,286.5 C 320.02,288.603 318.853,288.603 318,286.5C 317.184,291.684 317.35,296.684 318.5,301.5C 318.44,302.043 318.107,302.376 317.5,302.5C 316.505,296.872 316.171,291.206 316.5,285.5C 318.216,285.629 319.883,285.962 321.5,286.5 Z"/></g>
<g><path style="opacity:1" fill="#3b3b3b" d="M 318.5,301.5 C 317.35,296.684 317.184,291.684 318,286.5C 318.853,288.603 320.02,288.603 321.5,286.5C 322.568,285.566 323.901,285.232 325.5,285.5C 325.762,286.978 325.429,288.311 324.5,289.5C 322.53,288.557 321.03,289.224 320,291.5C 319.821,295.025 319.321,298.359 318.5,301.5 Z"/></g>
<g><path style="opacity:0.004" fill="#f3f4f3" d="M 207.5,290.5 C 206.427,289.749 206.26,288.749 207,287.5C 207.483,288.448 207.649,289.448 207.5,290.5 Z"/></g>
<g><path style="opacity:0.004" fill="#f3f4f3" d="M 239.5,287.5 C 240.833,288.167 240.833,288.167 239.5,287.5 Z"/></g>
<g><path style="opacity:1" fill="#3a3a3a" d="M 254.5,293.5 C 253.833,293.5 253.5,293.833 253.5,294.5C 253.167,294.5 252.833,294.5 252.5,294.5C 251.5,294.5 250.5,294.5 249.5,294.5C 248.167,294.5 246.833,294.5 245.5,294.5C 243.448,295.053 243.115,296.053 244.5,297.5C 246.099,299.729 248.099,300.062 250.5,298.5C 251.167,298.167 251.833,297.833 252.5,297.5C 253.259,299.666 252.259,301.166 249.5,302C 242.616,302.809 239.283,299.642 239.5,292.5C 240.338,292.158 240.672,291.492 240.5,290.5C 241.167,290.5 241.5,290.167 241.5,289.5C 241.574,287.589 242.574,286.422 244.5,286C 250.508,284.834 253.842,287.334 254.5,293.5 Z M 245.5,288.5 C 248.95,287.756 250.616,289.09 250.5,292.5C 247.612,293.01 245.279,292.344 243.5,290.5C 245.166,291.666 246.833,291.666 248.5,290.5C 247.398,289.824 246.398,289.158 245.5,288.5 Z M 244.5,297.5 C 246.735,297.205 248.735,297.539 250.5,298.5C 248.099,300.062 246.099,299.729 244.5,297.5 Z"/></g>
<g><path style="opacity:0.004" fill="#f3f4f3" d="M 254.5,287.5 C 255.525,287.897 255.692,288.563 255,289.5C 254.536,288.906 254.369,288.239 254.5,287.5 Z"/></g>
<g><path style="opacity:1" fill="#353535" d="M 313.5,294.5 C 313.167,294.5 312.833,294.5 312.5,294.5C 308.958,294.187 305.625,294.521 302.5,295.5C 302.5,295.833 302.5,296.167 302.5,296.5C 302.833,297.5 303.5,298.167 304.5,298.5C 306.167,299.833 307.833,299.833 309.5,298.5C 311.196,296.871 312.196,297.204 312.5,299.5C 309.68,302.761 306.346,303.261 302.5,301C 301.177,300.184 300.511,299.017 300.5,297.5C 300.5,295.167 300.5,292.833 300.5,290.5C 302.077,286.378 305.077,284.878 309.5,286C 312.821,287.812 314.155,290.645 313.5,294.5 Z M 308.5,289.5 C 310.985,290.74 310.985,291.74 308.5,292.5C 308.5,291.5 308.5,290.5 308.5,289.5 Z M 304.5,298.5 C 306.167,297.167 307.833,297.167 309.5,298.5C 307.833,299.833 306.167,299.833 304.5,298.5 Z"/></g>
<g><path style="opacity:0.004" fill="#f3f4f3" d="M 313.5,287.5 C 314.833,288.167 314.833,288.167 313.5,287.5 Z"/></g>
<g><path style="opacity:0.007" fill="#ebebeb" d="M 238.5,288.5 C 238.833,288.5 239.167,288.5 239.5,288.5C 239.842,289.338 240.508,289.672 241.5,289.5C 241.5,290.167 241.167,290.5 240.5,290.5C 239.662,290.842 239.328,291.508 239.5,292.5C 238.978,294.219 237.978,295.552 236.5,296.5C 236.737,295.209 236.404,294.209 235.5,293.5C 235.328,292.508 235.662,291.842 236.5,291.5C 237.206,292.557 237.539,292.224 237.5,290.5C 238.338,290.158 238.672,289.492 238.5,288.5 Z"/></g>
<g><path style="opacity:0.004" fill="#f3f4f3" d="M 279.5,288.5 C 280.525,288.897 280.692,289.563 280,290.5C 279.536,289.906 279.369,289.239 279.5,288.5 Z"/></g>
<g><path style="opacity:1" fill="#464646" d="M 293.5,301.5 C 293.5,300.167 292.833,299.5 291.5,299.5C 293.432,296.823 293.932,293.823 293,290.5C 291.89,288.963 290.39,288.297 288.5,288.5C 287.508,288.672 286.842,288.338 286.5,287.5C 289.754,284.834 292.921,285.167 296,288.5C 297.878,293.327 297.044,297.661 293.5,301.5 Z"/></g>
<g><path style="opacity:1" fill="#3b3b3b" d="M 221.5,288.5 C 221.5,290.5 221.5,292.5 221.5,294.5C 218.5,294.5 215.5,294.5 212.5,294.5C 212.167,294.5 211.833,294.5 211.5,294.5C 210.167,295.5 210.167,296.5 211.5,297.5C 211.833,297.5 212.167,297.5 212.5,297.5C 214.406,299.994 216.406,299.994 218.5,297.5C 219.167,297.5 219.833,297.5 220.5,297.5C 221.259,299.666 220.259,301.166 217.5,302C 209.53,302.518 206.196,298.685 207.5,290.5C 211.475,284.837 216.142,284.17 221.5,288.5 Z M 216.5,289.5 C 218.382,290.221 218.715,291.221 217.5,292.5C 216.89,291.609 216.557,290.609 216.5,289.5 Z M 211.5,290.5 C 212.995,290.989 214.329,291.655 215.5,292.5C 213.517,292.843 212.183,292.176 211.5,290.5 Z M 212.5,297.5 C 214.5,297.5 216.5,297.5 218.5,297.5C 216.406,299.994 214.406,299.994 212.5,297.5 Z"/></g>
<g><path style="opacity:0.011" fill="#f3f3f3" d="M 213.5,288.5 C 214.209,289.404 215.209,289.737 216.5,289.5C 216.557,290.609 216.89,291.609 217.5,292.5C 216.833,292.5 216.167,292.5 215.5,292.5C 214.329,291.655 212.995,290.989 211.5,290.5C 211.833,289.5 212.5,288.833 213.5,288.5 Z"/></g>
<g><path style="opacity:0.008" fill="#eeeeee" d="M 223.5,289.5 C 223.5,290.167 223.833,290.5 224.5,290.5C 225.167,290.5 225.5,290.833 225.5,291.5C 224.761,291.369 224.094,291.536 223.5,292C 224.337,293.011 224.67,294.178 224.5,295.5C 222.801,295.34 221.134,295.506 219.5,296C 220.056,296.383 220.389,296.883 220.5,297.5C 219.833,297.5 219.167,297.5 218.5,297.5C 216.5,297.5 214.5,297.5 212.5,297.5C 212.167,296.167 211.833,296.167 211.5,297.5C 210.167,296.5 210.167,295.5 211.5,294.5C 211.833,295.833 212.167,295.833 212.5,294.5C 215.5,294.5 218.5,294.5 221.5,294.5C 222.167,292.833 222.833,291.167 223.5,289.5 Z"/></g>
<g><path style="opacity:0.01" fill="#efefef" d="M 245.5,288.5 C 246.398,289.158 247.398,289.824 248.5,290.5C 246.833,291.666 245.166,291.666 243.5,290.5C 243.833,289.5 244.5,288.833 245.5,288.5 Z"/></g>
<g><path style="opacity:0.007" fill="#f3f4f3" d="M 261.5,289.5 C 262.205,292.228 262.872,295.061 263.5,298C 263.167,298.167 262.833,298.333 262.5,298.5C 261.516,295.572 261.183,292.572 261.5,289.5 Z"/></g>
<g><path style="opacity:1" fill="#464646" d="M 269.5,285.5 C 275.75,284.917 279.083,287.75 279.5,294C 277.057,303.287 272.224,304.787 265,298.5C 264.333,295.5 264.333,292.5 265,289.5C 265.907,287.391 267.407,286.058 269.5,285.5 Z M 269.5,288.5 C 275.156,288.867 276.989,291.867 275,297.5C 272.321,300.172 269.988,299.838 268,296.5C 267.282,293.593 267.782,290.926 269.5,288.5 Z"/></g>
<g><path style="opacity:0.008" fill="#f3f4f3" d="M 273.5,291.5 C 272.127,291.657 270.793,291.49 269.5,291C 271.124,288.981 272.457,289.148 273.5,291.5 Z"/></g>
<g><path style="opacity:0.007" fill="#f3f4f3" d="M 288.5,289.5 C 289.756,289.461 290.756,289.961 291.5,291C 290.167,291.667 288.833,291.667 287.5,291C 288.056,290.617 288.389,290.117 288.5,289.5 Z"/></g>
<g><path style="opacity:0.004" fill="#f3f4f3" d="M 297.5,289.5 C 298.833,290.167 298.833,290.167 297.5,289.5 Z"/></g>
<g><path style="opacity:0.011" fill="#eaeaea" d="M 303.5,289.5 C 303.833,290.833 304.167,290.833 304.5,289.5C 305.833,289.5 307.167,289.5 308.5,289.5C 308.5,290.5 308.5,291.5 308.5,292.5C 308.167,292.5 307.833,292.5 307.5,292.5C 306.833,291.167 306.167,291.167 305.5,292.5C 305.167,292.5 304.833,292.5 304.5,292.5C 304.167,291.167 303.833,291.167 303.5,292.5C 302.167,291.5 302.167,290.5 303.5,289.5 Z"/></g>
<g><path style="opacity:0.008" fill="#f2f2f2" d="M 312.5,299.5 C 312.196,297.204 311.196,296.871 309.5,298.5C 307.833,297.167 306.167,297.167 304.5,298.5C 303.5,298.167 302.833,297.5 302.5,296.5C 303.833,296.167 303.833,295.833 302.5,295.5C 305.625,294.521 308.958,294.187 312.5,294.5C 312.833,295.833 313.167,295.833 313.5,294.5C 314.302,293.048 314.802,291.382 315,289.5C 315.922,293.691 315.588,297.691 314,301.5C 313.722,300.584 313.222,299.918 312.5,299.5 Z"/></g>
<g><path style="opacity:0.008" fill="#f3f4f3" d="M 321.5,290.5 C 322.833,291.167 322.833,291.167 321.5,290.5 Z"/></g>
<g><path style="opacity:1" fill="#424242" d="M 226.5,286.5 C 227.699,290.258 229.199,293.925 231,297.5C 232.038,293.532 233.538,289.865 235.5,286.5C 236.833,286.5 237.5,287.167 237.5,288.5C 237.5,289.167 237.5,289.833 237.5,290.5C 236.833,290.5 236.5,290.833 236.5,291.5C 235.662,291.842 235.328,292.508 235.5,293.5C 234.924,296.917 233.591,299.917 231.5,302.5C 227.696,299.898 225.696,296.232 225.5,291.5C 225.5,290.833 225.167,290.5 224.5,290.5C 223.833,290.5 223.5,290.167 223.5,289.5C 223.5,288.833 223.5,288.167 223.5,287.5C 224.209,286.596 225.209,286.263 226.5,286.5 Z"/></g>
<g><path style="opacity:0.004" fill="#f3f4f3" d="M 230.5,292.5 C 231.833,293.167 231.833,293.167 230.5,292.5 Z"/></g>
<g><path style="opacity:0.005" fill="#f3f4f3" d="M 254.5,293.5 C 255.634,295.966 255.801,298.633 255,301.5C 254.847,298.849 254.013,296.516 252.5,294.5C 252.833,294.5 253.167,294.5 253.5,294.5C 254.167,294.5 254.5,294.167 254.5,293.5 Z"/></g>
<g><path style="opacity:0.584" fill="#a6a6a6" d="M 300.5,290.5 C 300.5,292.833 300.5,295.167 300.5,297.5C 299.761,297.369 299.094,297.536 298.5,298C 299.696,298.654 299.696,299.154 298.5,299.5C 297.261,297.993 297.595,296.826 299.5,296C 299.167,295.667 298.833,295.333 298.5,295C 299.099,293.378 299.766,291.878 300.5,290.5 Z"/></g>
<g><path style="opacity:0.009" fill="#efefef" d="M 245.5,294.5 C 246.833,294.5 248.167,294.5 249.5,294.5C 248.737,295.268 247.737,295.768 246.5,296C 248.112,296.72 249.612,296.554 251,295.5C 251.717,296.044 252.217,296.711 252.5,297.5C 251.833,297.833 251.167,298.167 250.5,298.5C 248.735,297.539 246.735,297.205 244.5,297.5C 244.557,296.391 244.89,295.391 245.5,294.5 Z"/></g>
<g><path style="opacity:0.007" fill="#f3f4f3" d="M 205.5,295.5 C 206.249,296.531 206.915,297.698 207.5,299C 206.5,299.667 205.5,299.667 204.5,299C 205.337,297.989 205.67,296.822 205.5,295.5 Z"/></g>
<g><path style="opacity:0.004" fill="#f3f4f3" d="M 236.5,296.5 C 236.631,297.239 236.464,297.906 236,298.5C 235.308,297.563 235.475,296.897 236.5,296.5 Z"/></g>
<g><path style="opacity:0.004" fill="#f3f4f3" d="M 279.5,297.5 C 280.573,298.251 280.74,299.251 280,300.5C 279.517,299.552 279.351,298.552 279.5,297.5 Z"/></g>
<g><path style="opacity:0.004" fill="#f3f4f3" d="M 264.5,300.5 C 265.525,300.897 265.692,301.563 265,302.5C 264.536,301.906 264.369,301.239 264.5,300.5 Z"/></g>
<g><path style="opacity:0.004" fill="#f3f4f3" d="M 215.5,303.5 C 216.833,304.167 216.833,304.167 215.5,303.5 Z"/></g>
<g><path style="opacity:0.004" fill="#f3f4f3" d="M 271.5,304.5 C 271.897,303.475 272.563,303.308 273.5,304C 272.906,304.464 272.239,304.631 271.5,304.5 Z"/></g>
<g><path style="opacity:0.006" fill="#f3f4f3" d="M 286.5,304.5 C 287.946,303.387 289.613,303.22 291.5,304C 289.866,304.494 288.199,304.66 286.5,304.5 Z"/></g>
<g><path style="opacity:0.004" fill="#f3f4f3" d="M 304.5,304.5 C 305.601,303.402 306.934,303.235 308.5,304C 307.207,304.49 305.873,304.657 304.5,304.5 Z"/></g>
<g><path style="opacity:0.984" fill="#4e4d4b" d="M 275.5,346.5 C 276.205,352.932 279.538,357.266 285.5,359.5C 286.263,360.268 287.263,360.768 288.5,361C 292.486,361.499 296.486,361.666 300.5,361.5C 300.649,362.552 300.483,363.552 300,364.5C 280.772,364.311 261.939,363.978 243.5,363.5C 248.59,361.856 253.923,360.856 259.5,360.5C 262.01,360.946 264.01,360.28 265.5,358.5C 269.341,355.499 271.674,351.499 272.5,346.5C 273.33,337.342 273.83,328.009 274,318.5C 274.17,328.009 274.67,337.342 275.5,346.5 Z"/></g>
<g><path style="opacity:0.742" fill="#706f6d" d="M 275.5,346.5 C 274.67,337.342 274.17,328.009 274,318.5C 273.83,328.009 273.33,337.342 272.5,346.5C 272.5,336.833 272.5,327.167 272.5,317.5C 273.5,317.5 274.5,317.5 275.5,317.5C 275.5,327.167 275.5,336.833 275.5,346.5 Z"/></g>
<g><path style="opacity:0.997" fill="#4b4947" d="M 322.5,317.5 C 331.506,317.334 340.506,317.5 349.5,318C 351.664,321.815 353.831,325.649 356,329.5C 357.53,325.91 358.864,322.243 360,318.5C 361.011,317.663 362.178,317.33 363.5,317.5C 359.315,331.557 354.815,345.557 350,359.5C 349.313,361.555 348.146,363.221 346.5,364.5C 344.657,364.245 342.657,364.078 340.5,364C 333.78,349.386 327.446,334.553 321.5,319.5C 321.863,318.817 322.196,318.15 322.5,317.5 Z"/></g>
<g><path style="opacity:0.993" fill="#484644" d="M 432.5,350.5 C 432.025,353.313 433.025,355.313 435.5,356.5C 438.456,358.149 441.456,359.483 444.5,360.5C 447.689,361.166 451.023,361.833 454.5,362.5C 454.376,363.107 454.043,363.44 453.5,363.5C 431.137,364.325 408.971,364.658 387,364.5C 385.383,363.464 385.216,362.297 386.5,361C 388.134,360.506 389.801,360.34 391.5,360.5C 394.01,360.946 396.01,360.28 397.5,358.5C 400.2,356.954 402.033,354.621 403,351.5C 403.178,340.257 403.678,329.09 404.5,318C 413.745,317.183 422.911,317.35 432,318.5C 432.5,329.161 432.667,339.828 432.5,350.5 Z"/></g>
<g><path style="opacity:0.941" fill="#8c8b89" d="M 432.5,350.5 C 433.492,352.456 434.492,354.456 435.5,356.5C 433.025,355.313 432.025,353.313 432.5,350.5 Z"/></g>
<g><path style="opacity:0.922" fill="#959493" d="M 265.5,358.5 C 264.01,360.28 262.01,360.946 259.5,360.5C 261.302,359.542 263.302,358.875 265.5,358.5 Z"/></g>
<g><path style="opacity:0.867" fill="#9f9f9d" d="M 397.5,358.5 C 396.01,360.28 394.01,360.946 391.5,360.5C 393.302,359.542 395.302,358.875 397.5,358.5 Z"/></g>
<g><path style="opacity:0.413" fill="#a5a4a3" d="M 259.5,360.5 C 253.923,360.856 248.59,361.856 243.5,363.5C 242.596,362.791 242.263,361.791 242.5,360.5C 248.167,360.5 253.833,360.5 259.5,360.5 Z"/></g>
<g><path style="opacity:0.409" fill="#a4a3a2" d="M 285.5,359.5 C 290.668,359.934 295.668,360.6 300.5,361.5C 296.486,361.666 292.486,361.499 288.5,361C 287.263,360.768 286.263,360.268 285.5,359.5 Z"/></g>
<g><path style="opacity:0.388" fill="#b2b1b1" d="M 444.5,360.5 C 448.167,360.5 451.833,360.5 455.5,360.5C 455.762,361.978 455.429,363.311 454.5,364.5C 453.893,364.376 453.56,364.043 453.5,363.5C 454.043,363.44 454.376,363.107 454.5,362.5C 451.023,361.833 447.689,361.166 444.5,360.5 Z"/></g>
</svg>
