<?xml version="1.0" encoding="UTF-8"?>
<!DOCTYPE svg PUBLIC "-//W3C//DTD SVG 1.1//EN" "http://www.w3.org/Graphics/SVG/1.1/DTD/svg11.dtd">
<svg xmlns="http://www.w3.org/2000/svg" version="1.1" width="500px" height="500px" style="shape-rendering:geometricPrecision; text-rendering:geometricPrecision; image-rendering:optimizeQuality; fill-rule:evenodd; clip-rule:evenodd" xmlns:xlink="http://www.w3.org/1999/xlink">
<g><path style="opacity:1" fill="#048471" d="M -0.5,-0.5 C 166.167,-0.5 332.833,-0.5 499.5,-0.5C 499.5,166.167 499.5,332.833 499.5,499.5C 332.833,499.5 166.167,499.5 -0.5,499.5C -0.5,332.833 -0.5,166.167 -0.5,-0.5 Z"/></g>
<g><path style="opacity:1" fill="#fdfefd" d="M 126.5,267.5 C 117.5,267.5 108.5,267.5 99.5,267.5C 85.6435,220.429 71.4768,173.429 57,126.5C 55.8333,124.667 54.6667,122.833 53.5,121C 48.9927,118.998 44.326,117.498 39.5,116.5C 62.8333,115.167 86.1667,115.167 109.5,116.5C 103.653,116.956 97.9867,118.122 92.5,120C 88.6326,123.66 87.466,128.16 89,133.5C 98.3276,164.818 107.661,196.151 117,227.5C 120.174,240.86 123.34,254.193 126.5,267.5 Z"/></g>
<g><path style="opacity:1" fill="#f9fcfb" d="M 328.5,267.5 C 319.167,267.5 309.833,267.5 300.5,267.5C 292.503,247.179 284.503,226.845 276.5,206.5C 276.44,205.957 276.107,205.624 275.5,205.5C 274.5,226.156 274.167,246.823 274.5,267.5C 273.833,267.5 273.167,267.5 272.5,267.5C 272.667,245.831 272.5,224.164 272,202.5C 271.117,199.898 269.617,197.731 267.5,196C 261.602,192.696 255.436,191.862 249,193.5C 242.834,218.162 236.668,242.829 230.5,267.5C 229.833,267.5 229.167,267.5 228.5,267.5C 234.03,242.379 240.03,217.379 246.5,192.5C 245.325,192.719 244.325,192.386 243.5,191.5C 244.991,190.756 246.491,190.09 248,189.5C 252.333,172.167 256.667,154.833 261,137.5C 261.667,132.833 261.667,128.167 261,123.5C 258.612,120.366 255.446,118.533 251.5,118C 247.129,117.828 242.796,117.328 238.5,116.5C 254.833,115.167 271.167,115.167 287.5,116.5C 278.857,116.155 272.19,119.488 267.5,126.5C 260.585,147.495 254.918,168.828 250.5,190.5C 266.181,190.167 281.848,190.501 297.5,191.5C 308.231,216.697 318.564,242.03 328.5,267.5 Z"/></g>
<g><path style="opacity:1" fill="#fbfdfc" d="M 225.5,267.5 C 216.833,267.5 208.167,267.5 199.5,267.5C 187.121,227.324 174.121,187.324 160.5,147.5C 149.871,187.351 139.871,227.351 130.5,267.5C 129.5,267.5 128.5,267.5 127.5,267.5C 139.833,217.501 152.166,167.501 164.5,117.5C 169.099,117.2 173.599,117.533 178,118.5C 189.469,153.241 201.136,187.907 213,222.5C 217.952,237.313 222.119,252.313 225.5,267.5 Z"/></g>
<g><path style="opacity:1" fill="#0b8572" d="M 199.5,267.5 C 176.5,267.5 153.5,267.5 130.5,267.5C 139.871,227.351 149.871,187.351 160.5,147.5C 174.121,187.324 187.121,227.324 199.5,267.5 Z"/></g>
<g><path style="opacity:1" fill="#fcfdfd" d="M 431.5,267.5 C 422.5,267.5 413.5,267.5 404.5,267.5C 404.667,246.164 404.5,224.831 404,203.5C 396.207,224.748 388.707,246.081 381.5,267.5C 380.5,267.5 379.5,267.5 378.5,267.5C 387.491,242.195 396.491,216.862 405.5,191.5C 421.833,190.167 438.167,190.167 454.5,191.5C 447.342,191.578 440.842,193.578 435,197.5C 433.561,199.275 432.561,201.275 432,203.5C 431.5,224.831 431.333,246.164 431.5,267.5 Z"/></g>
<g><path style="opacity:1" fill="#0a8472" d="M 272.5,267.5 C 258.5,267.5 244.5,267.5 230.5,267.5C 236.668,242.829 242.834,218.162 249,193.5C 255.436,191.862 261.602,192.696 267.5,196C 269.617,197.731 271.117,199.898 272,202.5C 272.5,224.164 272.667,245.831 272.5,267.5 Z"/></g>
<g><path style="opacity:1" fill="#bcded9" d="M 276.5,206.5 C 275.503,226.66 275.17,246.993 275.5,267.5C 275.167,267.5 274.833,267.5 274.5,267.5C 274.167,246.823 274.5,226.156 275.5,205.5C 276.107,205.624 276.44,205.957 276.5,206.5 Z"/></g>
<g><path style="opacity:1" fill="#0e8673" d="M 404.5,267.5 C 396.833,267.5 389.167,267.5 381.5,267.5C 388.707,246.081 396.207,224.748 404,203.5C 404.5,224.831 404.667,246.164 404.5,267.5 Z"/></g>
<g><path style="opacity:1" fill="#0b8572" d="M 276.5,206.5 C 284.503,226.845 292.503,247.179 300.5,267.5C 292.167,267.5 283.833,267.5 275.5,267.5C 275.17,246.993 275.503,226.66 276.5,206.5 Z"/></g>
<g><path style="opacity:1" fill="#180e2a" d="M 99.5,267.5 C 108.5,267.5 117.5,267.5 126.5,267.5C 126.833,267.5 127.167,267.5 127.5,267.5C 128.5,267.5 129.5,267.5 130.5,267.5C 153.5,267.5 176.5,267.5 199.5,267.5C 208.167,267.5 216.833,267.5 225.5,267.5C 226.5,267.5 227.5,267.5 228.5,267.5C 229.167,267.5 229.833,267.5 230.5,267.5C 244.5,267.5 258.5,267.5 272.5,267.5C 273.167,267.5 273.833,267.5 274.5,267.5C 274.833,267.5 275.167,267.5 275.5,267.5C 283.833,267.5 292.167,267.5 300.5,267.5C 309.833,267.5 319.167,267.5 328.5,267.5C 345.167,267.5 361.833,267.5 378.5,267.5C 379.5,267.5 380.5,267.5 381.5,267.5C 389.167,267.5 396.833,267.5 404.5,267.5C 413.5,267.5 422.5,267.5 431.5,267.5C 443.167,267.5 454.833,267.5 466.5,267.5C 466.5,284.5 466.5,301.5 466.5,318.5C 454.833,318.5 443.167,318.5 431.5,318.5C 422.5,318.5 413.5,318.5 404.5,318.5C 390.833,318.5 377.167,318.5 363.5,318.5C 362.5,318.5 361.5,318.5 360.5,318.5C 357.167,318.5 353.833,318.5 350.5,318.5C 341.167,318.5 331.833,318.5 322.5,318.5C 306.833,318.5 291.167,318.5 275.5,318.5C 274.5,318.5 273.5,318.5 272.5,318.5C 196.5,318.5 120.5,318.5 44.5,318.5C 44.5,301.5 44.5,284.5 44.5,267.5C 62.8333,267.5 81.1667,267.5 99.5,267.5 Z"/></g>
<g><path style="opacity:1" fill="#d2d0d5" d="M 263.5,280.5 C 264.5,280.5 265.5,280.5 266.5,280.5C 265.927,287.383 266.593,294.049 268.5,300.5C 266.653,301.83 265.153,301.497 264,299.5C 263.5,293.175 263.334,286.842 263.5,280.5 Z"/></g>
<g><path style="opacity:1" fill="#dcdade" d="M 157.5,282.5 C 158.209,281.596 159.209,281.263 160.5,281.5C 161.346,286.913 162.513,292.246 164,297.5C 165.178,292.457 166.511,287.457 168,282.5C 169.011,281.663 170.178,281.33 171.5,281.5C 172.191,286.598 173.358,291.598 175,296.5C 176.867,291.666 178.034,286.666 178.5,281.5C 179.5,281.5 180.5,281.5 181.5,281.5C 179.953,288.117 178.619,294.783 177.5,301.5C 176.022,301.762 174.689,301.429 173.5,300.5C 172.628,296.011 171.295,291.678 169.5,287.5C 167.582,292.002 166.249,296.668 165.5,301.5C 164.167,301.5 162.833,301.5 161.5,301.5C 160.903,294.884 159.569,288.551 157.5,282.5 Z"/></g>
<g><path style="opacity:1" fill="#f0eff1" d="M 304.5,281.5 C 316.931,279.267 322.098,284.267 320,296.5C 319.535,297.931 318.701,299.097 317.5,300C 313.3,301.367 308.967,301.867 304.5,301.5C 304.5,294.833 304.5,288.167 304.5,281.5 Z"/></g>
<g><path style="opacity:1" fill="#221834" d="M 306.5,283.5 C 313.304,282.221 317.304,284.888 318.5,291.5C 317.304,298.112 313.304,300.779 306.5,299.5C 306.5,294.167 306.5,288.833 306.5,283.5 Z"/></g>
<g><path style="opacity:1" fill="#d4d1d7" d="M 200.5,286.5 C 204.014,286.764 207.681,286.931 211.5,287C 212,287.5 212.5,288 213,288.5C 213.499,292.821 213.666,297.154 213.5,301.5C 212.5,301.5 211.5,301.5 210.5,301.5C 210.5,297.167 210.5,292.833 210.5,288.5C 208.396,288.201 206.396,288.534 204.5,289.5C 203.567,293.429 203.234,297.429 203.5,301.5C 202.5,301.5 201.5,301.5 200.5,301.5C 200.5,296.5 200.5,291.5 200.5,286.5 Z"/></g>
<g><path style="opacity:1" fill="#e6e5e8" d="M 186.5,286.5 C 189.685,286.02 192.519,286.686 195,288.5C 194.997,292.742 195.83,296.742 197.5,300.5C 195.741,301.754 194.241,301.421 193,299.5C 190.847,301.444 188.347,301.944 185.5,301C 182.997,295.152 184.997,292.152 191.5,292C 192.337,290.989 192.67,289.822 192.5,288.5C 189.956,288.104 187.789,288.771 186,290.5C 184.413,289.154 184.58,287.821 186.5,286.5 Z"/></g>
<g><path style="opacity:1" fill="#ecebed" d="M 252.5,286.5 C 255.071,286.625 257.737,286.958 260.5,287.5C 258.433,288.134 256.6,289.134 255,290.5C 254.825,294.211 254.325,297.878 253.5,301.5C 252.506,296.544 252.173,291.544 252.5,286.5 Z"/></g>
<g><path style="opacity:1" fill="#e7e6e9" d="M 327.5,286.5 C 334.424,284.94 337.757,287.607 337.5,294.5C 333.774,294.177 330.107,294.511 326.5,295.5C 328.775,299.965 331.942,300.632 336,297.5C 336.658,299.108 336.158,300.275 334.5,301C 325.906,302.058 322.739,298.225 325,289.5C 326.045,288.627 326.878,287.627 327.5,286.5 Z"/></g>
<g><path style="opacity:1" fill="#1e142f" d="M 328.5,288.5 C 331.596,287.907 333.929,288.907 335.5,291.5C 332.914,292.48 330.247,292.813 327.5,292.5C 327.433,291.041 327.766,289.708 328.5,288.5 Z"/></g>
<g><path style="opacity:1" fill="#f0eff1" d="M 228.5,280.5 C 229.821,283.598 230.488,287.098 230.5,291C 230.167,294.5 229.833,298 229.5,301.5C 228.676,299.252 227.676,299.086 226.5,301C 218.17,301.64 215.337,297.807 218,289.5C 221.048,285.99 224.381,285.657 228,288.5C 228.497,285.854 228.664,283.187 228.5,280.5 Z"/></g>
<g><path style="opacity:1" fill="#1c132e" d="M 221.5,288.5 C 227.997,288.18 230.164,291.18 228,297.5C 224.844,300.399 222.178,300.065 220,296.5C 219.109,293.502 219.609,290.836 221.5,288.5 Z"/></g>
<g><path style="opacity:1" fill="#e7e6e9" d="M 238.5,286.5 C 245.175,285.186 248.509,287.853 248.5,294.5C 244.774,294.177 241.107,294.511 237.5,295.5C 239.553,299.979 242.553,300.645 246.5,297.5C 247.594,298.868 247.26,300.035 245.5,301C 236.663,302.149 233.496,298.316 236,289.5C 237.045,288.627 237.878,287.627 238.5,286.5 Z"/></g>
<g><path style="opacity:1" fill="#1c122e" d="M 239.5,288.5 C 243.241,287.599 245.241,288.932 245.5,292.5C 242.753,292.813 240.086,292.48 237.5,291.5C 238.193,290.482 238.859,289.482 239.5,288.5 Z"/></g>
<g><path style="opacity:1" fill="#e7e6e9" d="M 274.5,286.5 C 281.175,285.186 284.509,287.853 284.5,294.5C 280.774,294.177 277.107,294.511 273.5,295.5C 275.553,299.979 278.553,300.645 282.5,297.5C 283.594,298.868 283.26,300.035 281.5,301C 272.663,302.149 269.496,298.316 272,289.5C 273.045,288.627 273.878,287.627 274.5,286.5 Z"/></g>
<g><path style="opacity:1" fill="#1c122e" d="M 275.5,288.5 C 279.241,287.599 281.241,288.932 281.5,292.5C 278.753,292.813 276.086,292.48 273.5,291.5C 274.193,290.482 274.859,289.482 275.5,288.5 Z"/></g>
<g><path style="opacity:1" fill="#e7e6e9" d="M 290.5,286.5 C 297.175,285.186 300.509,287.853 300.5,294.5C 296.774,294.177 293.107,294.511 289.5,295.5C 291.553,299.979 294.553,300.645 298.5,297.5C 299.594,298.868 299.26,300.035 297.5,301C 288.663,302.149 285.496,298.316 288,289.5C 289.045,288.627 289.878,287.627 290.5,286.5 Z"/></g>
<g><path style="opacity:1" fill="#1c122e" d="M 291.5,288.5 C 295.241,287.599 297.241,288.932 297.5,292.5C 294.753,292.813 292.086,292.48 289.5,291.5C 290.193,290.482 290.859,289.482 291.5,288.5 Z"/></g>
<g><path style="opacity:1" fill="#e6e5e8" d="M 339.5,287.5 C 340.386,286.224 341.386,286.224 342.5,287.5C 343.707,291.287 345.207,294.954 347,298.5C 348.53,294.91 349.864,291.243 351,287.5C 351.893,286.289 352.726,286.289 353.5,287.5C 352.03,291.912 350.363,296.245 348.5,300.5C 347.311,301.429 345.978,301.762 344.5,301.5C 343.602,296.466 341.935,291.799 339.5,287.5 Z"/></g>
<g><path style="opacity:1" fill="#251b36" d="M 191.5,293.5 C 193.344,294.204 193.844,295.537 193,297.5C 191.211,299.229 189.044,299.896 186.5,299.5C 186.058,295.616 187.725,293.616 191.5,293.5 Z"/></g>
<g><path style="opacity:1" fill="#f1f8f7" d="M 272.5,318.5 C 273.5,318.5 274.5,318.5 275.5,318.5C 275.334,328.839 275.5,339.172 276,349.5C 277.444,356.161 281.611,359.994 288.5,361C 292.541,361.173 296.541,361.673 300.5,362.5C 281.5,363.833 262.5,363.833 243.5,362.5C 248.802,361.671 254.136,361.171 259.5,361C 265.819,359.941 269.986,356.441 272,350.5C 272.5,339.839 272.667,329.172 272.5,318.5 Z"/></g>
<g><path style="opacity:1" fill="#fcfdfd" d="M 322.5,318.5 C 331.833,318.5 341.167,318.5 350.5,318.5C 352.039,323.283 353.872,327.95 356,332.5C 357.207,327.712 358.707,323.045 360.5,318.5C 361.5,318.5 362.5,318.5 363.5,318.5C 358.244,333.101 353.077,347.767 348,362.5C 345.599,363.602 343.099,363.769 340.5,363C 334.006,348.348 328.006,333.515 322.5,318.5 Z"/></g>
<g><path style="opacity:1" fill="#1b8a78" d="M 350.5,318.5 C 353.833,318.5 357.167,318.5 360.5,318.5C 358.707,323.045 357.207,327.712 356,332.5C 353.872,327.95 352.039,323.283 350.5,318.5 Z"/></g>
<g><path style="opacity:1" fill="#fefefe" d="M 404.5,318.5 C 413.5,318.5 422.5,318.5 431.5,318.5C 431.334,328.839 431.5,339.172 432,349.5C 432.831,354.681 435.664,358.181 440.5,360C 445.151,360.899 449.818,361.732 454.5,362.5C 431.833,363.833 409.167,363.833 386.5,362.5C 391.466,361.346 396.132,359.513 400.5,357C 401.794,354.913 402.961,352.746 404,350.5C 404.5,339.839 404.667,329.172 404.5,318.5 Z"/></g>
</svg>
